<svg width="32" height="18" viewBox="0 0 32 18" xmlns="http://www.w3.org/2000/svg" role="img" aria-label="Various">
  <rect width="32" height="18" rx="2" fill="#0f172a"/>
  <rect x="0" y="0" width="8" height="18" fill="#0f766e"/>
  <rect x="8" y="0" width="8" height="18" fill="#2563eb"/>
  <rect x="16" y="0" width="8" height="18" fill="#7c3aed"/>
  <rect x="24" y="0" width="8" height="18" fill="#f59e0b"/>
  <circle cx="16" cy="9" r="4.2" fill="rgba(15,23,42,0.35)"/>
  <path d="M16 5.4c-1.8 0-2.8.9-2.8 2.2h1.7c0-.5.4-.9 1.1-.9.6 0 1 .3 1 .8 0 .5-.3.8-1 1.2-.9.4-1.5 1-1.5 2v.3h1.7v-.2c0-.6.2-.8.9-1.2 1-.5 1.6-1.2 1.6-2.3 0-1.3-1.1-1.9-2.7-1.9zm-.2 6.5a1 1 0 100 2 1 1 0 000-2z" fill="#f8fafc"/>
  <rect x="0.5" y="0.5" width="31" height="17" rx="1.5" fill="none" stroke="rgba(248,250,252,0.5)"/>
</svg>
